# xmcd
#
# Track frame offsets:
#	150
#	18777
#	33605
#	45289
#	60787
#	70870
#	80970
#	92882
#	104457
#	119020
#	132645
#	146190
#	161702
#	174607
#	190050
#	203975
#	216587
#	231912
#	244990
#	256012
#
# Disc length: 3559 seconds
#
# Revision: 5
# Processed by: cddbd v1.5.2PL0 Copyright (c) Steve Scherf et al.
# Submitted via: audiograbber 1.83.01
#
DISCID=2d0de514
DTITLE=Sam Cooke - The Rhythm And The Blues
DYEAR=1995
DGENRE=Oldies
TTITLE0=Get Yourself Another Fool
TTITLE1=Driftin' Blues
TTITLE2=Fool's Paradise
TTITLE3=Smoke Rings
TTITLE4=Baby Won't You Please Come Home
TTITLE5=Please Don't Drive Me Away
TTITLE6=Nothing Can Change This Love
TTITLE7=But Not For Me
TTITLE8=Don't Get Around Much Anymore
TTITLE9=Trouble In Mind
TTITLE10=Little Girl Blue
TTITLE11=I Lost Everything
TTITLE12=Chains Of Love
TTITLE13=Nobody Knows You When You're Down And Out
TTITLE14=Since I Met You Baby
TTITLE15=Cry Me A River
TTITLE16=Trouble Blues
TTITLE17=Little Red Rooster
TTITLE18=Out In The Cold Again
TTITLE19=One More Time
EXTD=
EXTT0=
EXTT1=
EXTT2=
EXTT3=
EXTT4=
EXTT5=
EXTT6=
EXTT7=
EXTT8=
EXTT9=
EXTT10=
EXTT11=
EXTT12=
EXTT13=
EXTT14=
EXTT15=
EXTT16=
EXTT17=
EXTT18=
EXTT19=
PLAYORDER=
